<?xml version="1.0" encoding="utf-8"?>
<!-- Generator: Adobe Illustrator 19.0.0, SVG Export Plug-In . SVG Version: 6.00 Build 0)  -->
<svg version="1.1" id="Ebene_1" xmlns="http://www.w3.org/2000/svg" xmlns:xlink="http://www.w3.org/1999/xlink" x="0px" y="0px"
	 viewBox="0 0 586.7 252.1" style="enable-background:new 0 0 586.7 252.1;" xml:space="preserve">
<style type="text/css">
	.st0{fill:#D86C34;}
	.st1{fill:none;}
</style>
<polygon id="XMLID_77_" points="211.3,119 298.1,0 258.3,0 198,88.1 171.2,116.8 67.4,255.1 110.4,255.1 183.3,147.1 "/>
<g id="XMLID_76_">
	<path id="XMLID_28_" d="M185.3,158.4l-2.6-10.4l-5.8,9.8L136.4,216H96.9l73.7-98.8l-26.5-72.9l-14.1-20.7h46.1L196,77.5l2.6,9.8
		l5.8-9.8l37.7-53.9H281l-69.7,95.3l35.1,97.1h-40.3L185.3,158.4z"/>
	<path id="XMLID_34_" class="st0" d="M281.3,254.2h-20.4L322.1-5.2h21.3L281.3,254.2z"/>
	<path id="XMLID_36_" class="st0" d="M342.9,216l-2.9-12.7c0-0.6,2.6-3.5,5.5-6.6c17.9-20.2,64.2-72.3,64.2-103.1
		c0-19.3-13-28.5-26.2-28.5c-11.8,0-24.5,6.9-33.1,16.7L340,61.6c11.5-9.8,29.4-15.8,47.5-15.8c25.1,0,49,14.7,49,44.1
		c0,50.4-63.6,103.7-63.6,103.7h73.4l-2.9,22.5H342.9z"/>
	<path id="XMLID_38_" class="st0" d="M577.3,150.3c0,37.2-21.6,69.4-60.8,69.4c-42.9,0-60.5-44.6-60.5-90.7
		c0-73.7,34-105.7,76.6-105.7c13.8,0,32,4.9,41.5,16.4l-10.1,19.6c-5.8-8.9-19.3-16.1-32.8-16.1c-23.6,0-44.6,20.4-48.7,65.4
		c6.3-4,24.2-13.8,44.1-13.8C552.8,94.7,577.3,112.6,577.3,150.3z M551.1,158.4c0-29.7-16.4-43.2-36.6-43.2
		c-14.7,0-28.2,8.9-32.5,12.4c0.3,34.8,9.2,71.7,39.5,71.7C541.6,199.3,551.1,178,551.1,158.4z"/>
</g>
<g id="XMLID_74_">
	<rect id="XMLID_32_" x="-7.7" y="-1.9" class="st1" width="149.1" height="279.7"/>
	<path id="XMLID_29_" d="M24,215.5v-4.6c0-25.1,0.6-49.8,0.3-72c0-48.7,2.6-95-7.8-108l2-4.9l51.8-1.7c1.2,0,2,0,3.2,0
		c28.8,0,63.6,11.8,63.6,58.8c0,35.4-31.1,60.5-69.1,60.5c-5.2,0-10.1-0.6-15.3-1.7c0.6,29.1,1.4,64.8,2.6,73.7H24z M111.5,89.4
		c0-36.6-24.2-49.5-42.3-49L53.6,41c-0.9,10.4-0.9,51-0.9,76.9c0,3.7,0,6.6,0,8.6c4,2,8.9,2.6,18.1,2.6
		C93.1,129.1,111.5,113.9,111.5,89.4z"/>
</g>
<g id="XMLID_15_">
</g>
<g id="XMLID_41_">
</g>
<g id="XMLID_42_">
</g>
<g id="XMLID_43_">
</g>
<g id="XMLID_44_">
</g>
<g id="XMLID_45_">
</g>
</svg>
