<?xml version="1.0" encoding="utf-8"?>
<!-- Generator: Adobe Illustrator 19.0.0, SVG Export Plug-In . SVG Version: 6.00 Build 0)  -->
<svg version="1.1" id="Ebene_1" xmlns="http://www.w3.org/2000/svg" xmlns:xlink="http://www.w3.org/1999/xlink" x="0px" y="0px"
	 viewBox="0 0 584.7 252.1" style="enable-background:new 0 0 584.7 252.1;" xml:space="preserve">
<style type="text/css">
	.st0{fill:#D86C34;}
	.st1{fill:none;}
</style>
<polygon id="XMLID_77_" points="213.3,119 300.1,0 260.3,0 200,88.1 173.2,116.8 69.4,255.1 112.4,255.1 185.3,147.1 "/>
<g id="XMLID_76_">
	<path id="XMLID_6_" d="M187.3,158.4l-2.6-10.4l-5.8,9.8L138.4,216H98.9l73.7-98.8l-26.5-72.9l-14.1-20.7h46.1L198,77.5l2.6,9.8
		l5.8-9.8l37.7-53.9H283l-69.7,95.3l35.1,97.1h-40.3L187.3,158.4z"/>
	<path id="XMLID_8_" class="st0" d="M283.3,254.2h-20.4L324.1-5.2h21.3L283.3,254.2z"/>
	<path id="XMLID_10_" class="st0" d="M345.5,197h35.4V75.2l-30,9.2l-7.2-17.6l61.3-20.4V197h35.7l-2.9,19h-92.4V197z"/>
	<path id="XMLID_12_" class="st0" d="M464.7,243.6l74.6-170.8h-84.4l-8.6-22.5h121.5l4.3,6.6L488,247.9L464.7,243.6z"/>
</g>
<g id="XMLID_74_">
	<rect id="XMLID_5_" x="-5.7" y="-1.9" class="st1" width="149.1" height="279.7"/>
	<path id="XMLID_2_" d="M26,215.5v-4.6c0-25.1,0.6-49.8,0.3-72c0-48.7,2.6-95-7.8-108l2-4.9l51.8-1.7c1.2,0,2,0,3.2,0
		c28.8,0,63.6,11.8,63.6,58.8c0,35.4-31.1,60.5-69.1,60.5c-5.2,0-10.1-0.6-15.3-1.7c0.6,29.1,1.4,64.8,2.6,73.7H26z M113.5,89.4
		c0-36.6-24.2-49.5-42.3-49L55.6,41c-0.9,10.4-0.9,51-0.9,76.9c0,3.7,0,6.6,0,8.6c4,2,8.9,2.6,18.1,2.6
		C95.1,129.1,113.5,113.9,113.5,89.4z"/>
</g>
<g id="XMLID_1_">
</g>
<g id="XMLID_14_">
</g>
<g id="XMLID_15_">
</g>
<g id="XMLID_16_">
</g>
<g id="XMLID_17_">
</g>
<g id="XMLID_18_">
</g>
</svg>
