<?xml version="1.0" encoding="utf-8"?>
<!-- Generator: Adobe Illustrator 19.0.0, SVG Export Plug-In . SVG Version: 6.00 Build 0)  -->
<svg version="1.1" id="Ebene_1" xmlns="http://www.w3.org/2000/svg" xmlns:xlink="http://www.w3.org/1999/xlink" x="0px" y="0px"
	 viewBox="0 0 774.6 252.1" style="enable-background:new 0 0 774.6 252.1;" xml:space="preserve">
<style type="text/css">
	.st0{fill:#D86C34;}
	.st1{fill:none;}
</style>
<polygon id="XMLID_77_" points="213.3,119 300.1,0 260.3,0 200,88.1 173.2,116.8 69.4,255.1 112.4,255.1 185.3,147.1 "/>
<g id="XMLID_76_">
	<path id="XMLID_15_" d="M187.3,158.4l-2.6-10.4l-5.8,9.8L138.4,216H98.9l73.7-98.8l-26.5-72.9l-14.1-20.7h46.1L198,77.5l2.6,9.8
		l5.8-9.8l37.7-53.9H283l-69.7,95.3l35.1,97.1h-40.3L187.3,158.4z"/>
	<path id="XMLID_21_" class="st0" d="M283.3,254.2h-20.4L324.1-5.2h21.3L283.3,254.2z"/>
	<path id="XMLID_23_" class="st0" d="M344.9,216l-2.9-12.7c0-0.6,2.6-3.5,5.5-6.6c17.9-20.2,64.2-72.3,64.2-103.1
		c0-19.3-13-28.5-26.2-28.5c-11.8,0-24.5,6.9-33.1,16.7L342,61.6c11.5-9.8,29.4-15.8,47.5-15.8c25.1,0,49,14.7,49,44.1
		c0,50.4-63.6,103.7-63.6,103.7h73.4l-2.9,22.5H344.9z"/>
	<path id="XMLID_25_" class="st0" d="M563.5,72.8h-60.2l-1.4,37.7c34.3,0,69.4,23.6,69.4,62.8c0,50.7-45.2,72-89.9,72
		c-2.6,0-5.2,0-7.8-0.3l-6-19.6c4,0.6,8.4,0.6,13.2,0.6c30.8,0,64.5-15.3,64.5-48.4c0-25.9-21.9-48.4-55.3-48.4
		c-6,0-10.4,0.6-10.4,0.6l3.5-79.5h86.1L563.5,72.8z"/>
	<path id="XMLID_27_" class="st0" d="M612.1,219.7c-9.5,0-17.3-8.1-17.3-18.1c0-9.5,7.8-17.6,17.3-17.6s17.3,8.1,17.3,17.6
		C629.4,211.7,621.6,219.7,612.1,219.7z"/>
	<path id="XMLID_29_" class="st0" d="M658.8,216l-2.9-12.7c0-0.6,2.6-3.5,5.5-6.6c17.9-20.2,64.2-72.3,64.2-103.1
		c0-19.3-13-28.5-26.2-28.5c-11.8,0-24.5,6.9-33.1,16.7l-10.4-20.2c11.5-9.8,29.4-15.8,47.5-15.8c25.1,0,49,14.7,49,44.1
		c0,50.4-63.6,103.7-63.6,103.7h73.4l-2.9,22.5H658.8z"/>
</g>
<g id="XMLID_74_">
	<rect id="XMLID_19_" x="-5.7" y="-1.9" class="st1" width="149.1" height="279.7"/>
	<path id="XMLID_16_" d="M26,215.5v-4.6c0-25.1,0.6-49.8,0.3-72c0-48.7,2.6-95-7.8-108l2-4.9l51.8-1.7c1.2,0,2,0,3.2,0
		c28.8,0,63.6,11.8,63.6,58.8c0,35.4-31.1,60.5-69.1,60.5c-5.2,0-10.1-0.6-15.3-1.7c0.6,29.1,1.4,64.8,2.6,73.7H26z M113.5,89.4
		c0-36.6-24.2-49.5-42.3-49L55.6,41c-0.9,10.4-0.9,51-0.9,76.9c0,3.7,0,6.6,0,8.6c4,2,8.9,2.6,18.1,2.6
		C95.1,129.1,113.5,113.9,113.5,89.4z"/>
</g>
<g id="XMLID_14_">
</g>
<g id="XMLID_31_">
</g>
<g id="XMLID_32_">
</g>
<g id="XMLID_33_">
</g>
<g id="XMLID_34_">
</g>
<g id="XMLID_35_">
</g>
</svg>
